<svg width="512" height="512" viewBox="0 0 512 512" fill="none" xmlns="http://www.w3.org/2000/svg">
<g clip-path="url(#clip0_70_6)">
<path d="M0 48C0 21.4903 21.4903 0 48 0H464C490.51 0 512 21.4903 512 48V464C512 490.51 490.51 512 464 512H48C21.4903 512 0 490.51 0 464V48Z" fill="#EFEFEF"/>
<path d="M122 125.081C122 106.927 128.681 92.962 142.042 83.1867C155.404 73.0622 174.568 68 199.533 68V232.435L370.949 68C380.794 75.3315 388.706 83.3612 394.683 92.0891C400.661 100.468 403.65 107.799 403.65 114.084C403.65 120.019 401.716 125.43 397.848 130.318C393.98 135.205 387.827 141.664 379.388 149.694L279.703 242.908L420 419.387C408.045 435.796 392.398 444 373.058 444C354.774 444 340.358 437.192 329.809 423.577L227.487 291.086L199.533 318.318V391.109C199.533 409.612 193.204 423.053 180.545 431.432C168.238 439.811 148.723 444 122 444V125.081Z" fill="#111111"/>
<path d="M190.378 512H464C490.51 512 512 490.51 512 464V206.485L392.697 89.3095C393.381 90.228 394.043 91.1546 394.683 92.0891C400.661 100.468 403.65 107.799 403.65 114.084C403.65 120.019 401.716 125.43 397.848 130.318C393.98 135.205 387.827 141.664 379.388 149.694L279.703 242.908L420 419.387C408.045 435.796 392.398 444 373.058 444C354.774 444 340.358 437.192 329.809 423.577L227.487 291.086L199.533 318.318V391.109C199.533 409.612 193.204 423.053 180.545 431.432C168.238 439.811 148.723 444 122 444L190.378 512Z" fill="#DDDDDD"/>
<path d="M371 68L371.162 68.1594L370.978 68.0218L371 68Z" fill="#DDDDDD"/>
<path d="M199.533 232.435V68.5414L282.493 152.853L199.533 232.435Z" fill="#DDDDDD"/>
</g>
<defs>
<clipPath id="clip0_70_6">
<rect width="512" height="512" fill="white"/>
</clipPath>
</defs>
</svg>
