<svg width="120" height="120" viewBox="0 0 120 120" fill="none" xmlns="http://www.w3.org/2000/svg">
<g clip-path="url(#clip0_70_6)">
<path d="M0 11.25C0 5.0368 5.0368 0 11.25 0H108.75C114.963 0 120 5.0368 120 11.25V108.75C120 114.963 114.963 120 108.75 120H11.25C5.0368 120 0 114.963 0 108.75V11.25Z" fill="#EFEFEF"/>
<path d="M28.5938 29.3158C28.5938 25.0609 30.1596 21.788 33.2912 19.4969C36.4228 17.124 40.9143 15.9375 46.7655 15.9375V54.4768L86.9411 15.9375C89.2486 17.6558 91.1029 19.5378 92.5039 21.5834C93.9049 23.5472 94.6054 25.2655 94.6054 26.7383C94.6054 28.1294 94.1521 29.3976 93.2456 30.5432C92.3391 31.6887 90.8969 33.2025 88.919 35.0844L65.5553 56.9316L98.4375 98.2939C95.6355 102.14 91.9682 104.062 87.4356 104.062C83.1502 104.062 79.7713 102.467 77.299 99.2758L53.3172 68.2234L46.7655 74.6057V91.6661C46.7655 96.0028 45.2821 99.153 42.3153 101.117C39.4309 103.081 34.857 104.062 28.5938 104.062V29.3158Z" fill="#111111"/>
<path d="M44.6198 120H108.75C114.963 120 120 114.963 120 108.75V48.3948L92.0382 20.9319C92.1987 21.1472 92.3539 21.3644 92.5039 21.5834C93.9049 23.5472 94.6054 25.2655 94.6054 26.7383C94.6054 28.1294 94.1521 29.3976 93.2456 30.5432C92.3391 31.6887 90.8969 33.2025 88.919 35.0844L65.5553 56.9316L98.4375 98.2939C95.6355 102.14 91.9682 104.062 87.4356 104.062C83.1502 104.062 79.7713 102.467 77.299 99.2758L53.3172 68.2234L46.7655 74.6057V91.6661C46.7655 96.0028 45.2821 99.153 42.3153 101.117C39.4309 103.081 34.857 104.062 28.5938 104.062L44.6198 120Z" fill="#DDDDDD"/>
<path d="M86.9531 15.9375L86.9912 15.9749L86.9479 15.9426L86.9531 15.9375Z" fill="#DDDDDD"/>
<path d="M46.7655 54.4768V16.0644L66.2094 35.8248L46.7655 54.4768Z" fill="#DDDDDD"/>
</g>
<defs>
<clipPath id="clip0_70_6">
<rect width="120" height="120" fill="white"/>
</clipPath>
</defs>
</svg>
